<?xml version="1.0" standalone="no"?>
<!DOCTYPE svg PUBLIC "-//W3C//DTD SVG 20010904//EN"
 "http://www.w3.org/TR/2001/REC-SVG-20010904/DTD/svg10.dtd">
<svg version="1.0" xmlns="http://www.w3.org/2000/svg"
 width="512.000000pt" height="512.000000pt" viewBox="0 0 512.000000 512.000000"
 preserveAspectRatio="xMidYMid meet">

<g transform="translate(0.000000,512.000000) scale(0.100000,-0.100000)"
fill="#000000" stroke="none">
<path d="M888 3961 c-53 -17 -97 -52 -127 -101 -35 -56 -25 -53 -231 -70 -384
-33 -552 -107 -384 -169 79 -30 250 -58 440 -72 87 -7 160 -12 161 -13 1 -1 6
-60 12 -131 6 -72 13 -149 16 -172 4 -41 4 -42 -48 -71 -59 -34 -126 -102
-155 -159 -88 -174 -17 -389 160 -483 96 -51 178 -53 378 -6 85 19 223 47 305
61 83 14 162 27 177 30 22 3 31 -1 45 -26 23 -38 87 -69 144 -69 43 0 46 -2
56 -34 l11 -34 -270 -193 c-163 -116 -278 -205 -289 -223 -18 -29 -19 -57 -19
-394 0 -407 1 -412 68 -454 26 -16 52 -22 89 -22 57 0 90 17 127 68 20 26 21
44 26 344 l5 316 264 162 c244 149 267 161 295 153 40 -12 782 -12 822 0 28 8
51 -4 295 -153 l264 -162 5 -315 5 -316 29 -37 c30 -41 78 -66 123 -66 46 0
107 37 131 79 22 38 22 47 22 402 0 343 -1 366 -20 396 -12 20 -118 102 -288
223 l-270 192 11 34 c10 32 13 34 56 34 57 0 121 31 144 70 17 28 21 30 60 24
156 -23 354 -60 481 -91 123 -29 162 -35 225 -31 212 12 370 208 332 413 -23
125 -89 221 -186 271 l-55 29 5 45 c3 25 10 101 15 169 6 69 11 126 13 127 1
1 70 7 152 13 277 21 455 57 502 101 12 11 20 26 17 33 -17 46 -245 96 -519
113 -104 7 -111 9 -135 36 -14 16 -43 48 -65 71 -87 92 -222 87 -303 -10 -78
-95 -67 -89 -187 -97 -289 -18 -525 -73 -525 -121 0 -55 194 -103 509 -126
l161 -12 4 -31 c3 -17 10 -98 16 -180 9 -117 9 -151 -1 -157 -20 -12 -433 -89
-481 -89 -9 0 -24 13 -34 29 -30 51 -67 64 -189 69 l-110 5 -59 64 c-151 164
-334 244 -561 244 -134 0 -233 -23 -344 -81 -90 -47 -193 -129 -236 -188 l-30
-42 -90 0 c-49 0 -108 -5 -129 -11 -38 -11 -88 -50 -97 -78 -4 -11 -19 -11
-84 -1 -85 12 -377 67 -409 77 -18 5 -18 13 -12 116 4 61 9 143 13 183 l6 71
106 7 c315 20 545 69 564 120 20 53 -168 104 -467 127 -77 6 -152 15 -166 21
-14 5 -38 30 -55 56 -18 28 -47 56 -72 70 -46 25 -124 36 -165 23z"/>
</g>
</svg>
